HIERARCHY
ROOT root
{
	OFFSET	0	13.1	24.9
	CHANNELS 6  Xposition Yposition Zposition Xrotation Yrotation Zrotation
	JOINT spine_1
	{
		OFFSET	0	9.99999	0
		CHANNELS 3  Xrotation Yrotation Zrotation
		JOINT spine_2
		{
			OFFSET	0	112	-10
			CHANNELS 3  Xrotation Yrotation Zrotation
			JOINT spine_3
			{
				OFFSET	0	206.5	19.3
				CHANNELS 3  Xrotation Yrotation Zrotation
				JOINT spine_4
				{
					OFFSET	0	110.4	14.6
					CHANNELS 3  Xrotation Yrotation Zrotation
					JOINT neck_1
					{
						OFFSET	0	71.8	-50.3
						CHANNELS 3  Xrotation Yrotation Zrotation
						JOINT neck_2
						{
							OFFSET	0	86.2	-25.8
							CHANNELS 3  Xrotation Yrotation Zrotation
							JOINT head_ee
							{
								OFFSET	0	179.8	-8.7
								CHANNELS 3  Xrotation Yrotation Zrotation
								End Site
								{
									OFFSET	1	0	0
								}
							}
						}
					}
					JOINT left_clavicle
					{
						OFFSET	-43.2	22.4	-70.8
						CHANNELS 3  Xrotation Yrotation Zrotation
						JOINT left_shoulder
						{
							OFFSET	-93.9	-5.79999	48.7
							CHANNELS 3  Xrotation Yrotation Zrotation
							JOINT left_elbow
							{
								OFFSET	-291.4	-30.8	15.2
								CHANNELS 3  Xrotation Yrotation Zrotation
								JOINT left_lowarm_twist
								{
									OFFSET	-110.7	-3.89999	13.6
									CHANNELS 3  Xrotation Yrotation Zrotation
									JOINT left_hand
									{
										OFFSET	-110.7	-3.89999	13.6
										CHANNELS 3  Xrotation Yrotation Zrotation
										JOINT left_ee
										{
											OFFSET	-80.8	-5.10001	12.1
											CHANNELS 3  Xrotation Yrotation Zrotation
											End Site
											{
												OFFSET	1	0	0
											}
										}
									}
								}
							}
						}
					}
					JOINT right_clavicle
					{
						OFFSET	43.2	22.4	-70.8
						CHANNELS 3  Xrotation Yrotation Zrotation
						JOINT right_shoulder
						{
							OFFSET	93.9	-5.79999	48.7
							CHANNELS 3  Xrotation Yrotation Zrotation
							JOINT right_elbow
							{
								OFFSET	291.4	-30.8	15.2
								CHANNELS 3  Xrotation Yrotation Zrotation
								JOINT right_lowarm_twist
								{
									OFFSET	110.7	-3.89999	13.6
									CHANNELS 3  Xrotation Yrotation Zrotation
									JOINT right_hand
									{
										OFFSET	110.7	-3.89999	13.6
										CHANNELS 3  Xrotation Yrotation Zrotation
										JOINT right_ee
										{
											OFFSET	80.8	-5.10001	12.1
											CHANNELS 3  Xrotation Yrotation Zrotation
											End Site
											{
												OFFSET	1	0	0
											}
										}
									}
								}
							}
						}
					}
				}
			}
		}
	}
	JOINT left_hip
	{
		OFFSET	-82.8	-127.5	0.300001
		CHANNELS 3  Xrotation Yrotation Zrotation
		JOINT left_knee
		{
			OFFSET	-28.2	-396.7	2.2
			CHANNELS 3  Xrotation Yrotation Zrotation
			JOINT left_ankle
			{
				OFFSET	-11.7	-411.3	35.4
				CHANNELS 3  Xrotation Yrotation Zrotation
				JOINT left_toes
				{
					OFFSET	0	-60	-88.6
					CHANNELS 3  Xrotation Yrotation Zrotation
					JOINT left_foot_ee
					{
						OFFSET	-22.5	-16.5	-42.2
						CHANNELS 3  Xrotation Yrotation Zrotation
						End Site
						{
							OFFSET	1	0	0
						}
					}
				}
			}
		}
	}
	JOINT right_hip
	{
		OFFSET	82.8	-127.5	0.300001
		CHANNELS 3  Xrotation Yrotation Zrotation
		JOINT right_knee
		{
			OFFSET	28.2	-396.7	2.2
			CHANNELS 3  Xrotation Yrotation Zrotation
			JOINT right_ankle
			{
				OFFSET	11.7	-411.3	35.4
				CHANNELS 3  Xrotation Yrotation Zrotation
				JOINT right_toes
				{
					OFFSET	0	-60	-88.6
					CHANNELS 3  Xrotation Yrotation Zrotation
					JOINT right_foot_ee
					{
						OFFSET	22.5	-16.5	-42.2
						CHANNELS 3  Xrotation Yrotation Zrotation
						End Site
						{
							OFFSET	1	0	0
						}
					}
				}
			}
		}
	}
}
MOTION
Frames: 15
Frame Time: 0.02
1000.15 714.74 -1196.95 -167.681 -46.2895 -172.929 1.14886 0.47008 2.92548 1.15357 0.283054 2.94944 1.16918 -0.28317 2.94942 1.15709 0.185981 2.95714 -8.70303 16.9606 -0.0475524 -8.91509 31.84 3.98129 -0.0 0.0 -0.0 2.28562 13.8451 5.3615 4.89354 -23.0037 47.4033 2.05788 -45.5455 0.86398 -9.16255 -0.411449 1.09552 0.0649137 -6.48297 -2.3122 -0.0 0.0 -0.0 11.7309 1.69975 -23.4028 -32.4121 24.9375 -58.1125 0.201226 5.69265 -0.0100047 26.372 -0.164165 3.33521 0.633467 -15.4502 -10.2759 0.0 0.0 0.0 -4.34893 -12.907 9.906 -14.3872 0.320264 2.17888 42.6137 24.0951 -5.38118 -40.17 0.0 0.0 -0.0 0.0 -0.0 38.4493 -2.40354 -3.33685 -6.93364 -0.222758 -1.04015 -11.9436 2.42726 -1.8192 -1.22789 0.0 0.0 0.0 0.0 0.0 
1016.08 714.785 -1184.79 -167.319 -47.3922 -172.082 1.09486 0.482667 2.98175 1.09975 0.29204 3.00639 1.11623 -0.287963 3.00678 1.10366 0.190294 3.01453 -8.00149 17.258 -0.599782 -8.13191 32.6868 3.29564 -0.0 0.0 -0.0 2.47611 13.9982 5.68142 4.2568 -23.4756 47.3083 2.03697 -45.253 0.849089 -9.10576 -0.408363 1.08894 0.205363 -6.62006 -1.42229 -0.0 0.0 -0.0 11.6942 0.480186 -23.2417 -32.1466 25.3302 -58.0712 0.216695 6.12706 -0.0115975 26.8328 -0.153337 3.39307 0.574622 -16.0633 -10.1314 0.0 0.0 0.0 -5.19078 -13.1723 9.14855 -14.9142 0.321539 2.25972 42.5251 23.4681 -5.35305 -40.1192 0.0 0.0 -0.0 0.0 -0.0 38.689 -3.04778 -3.73436 -8.9736 -0.264163 -1.35043 -12.0905 4.11578 -1.85345 -1.11809 0.0 0.0 0.0 0.0 0.0 
1037.64 716.514 -1172.51 -166.905 -47.9219 -171.683 1.21828 0.532666 2.98766 1.22318 0.341562 3.01546 1.24219 -0.234365 3.02567 1.2295 0.246201 3.02473 -7.186 17.4327 -1.14167 -7.20503 33.2847 2.53876 -0.0 0.0 -0.0 2.46415 14.0888 5.66676 2.75511 -22.9537 47.5201 1.92879 -43.6908 0.773297 -9.11388 -0.408804 1.08988 0.304461 -6.22987 -0.587753 -0.0 0.0 -0.0 11.6777 -0.160152 -23.159 -31.9181 25.5382 -57.8495 0.230187 6.50538 -0.0130818 27.3916 -0.13958 3.46313 0.599848 -16.1609 -10.3249 0.0 0.0 0.0 -5.3628 -12.4275 8.63621 -15.4849 0.322082 2.34729 42.3794 23.1455 -5.32996 -40.1861 0.0 0.0 -0.0 0.0 -0.0 38.5054 -3.25752 -3.62715 -10.3654 -0.28606 -1.56287 -13.4613 6.0606 -2.08402 -1.03205 0.0 0.0 0.0 0.0 0.0 
1070.05 715.054 -1154.5 -167.24 -48.1503 -172.325 1.19303 0.53964 2.94204 1.19778 0.351422 2.97038 1.21705 -0.217453 2.98317 1.20472 0.256197 2.98009 -6.59912 17.1333 -0.895579 -6.54427 32.4706 2.53435 -0.0 0.0 -0.0 2.305 14.9583 5.45689 -0.0607315 -21.6717 48.6655 1.97089 -44.3087 0.802539 -8.83506 -0.393744 1.05755 0.348903 -7.08519 -0.65109 -0.0 0.0 -0.0 11.6675 -1.02523 -23.0686 -32.8327 26.0999 -57.2544 0.238451 6.73682 -0.0140347 27.4919 -0.137039 3.47569 0.42071 -15.2408 -8.8624 0.0 0.0 0.0 -5.56355 -10.4272 8.26313 -18.68 0.309011 2.83728 41.9928 21.2494 -5.24077 -39.2967 0.0 0.0 -0.0 0.0 -0.0 38.1826 -3.30452 -3.31072 -15.2073 -0.321927 -2.3047 -11.0818 8.62525 -1.73313 1.6553 -0.0 -0.0 0.0 0.0 0.0 
1091.2 718.886 -1143.68 -167.446 -47.6971 -172.692 1.19935 0.532856 2.81256 1.20368 0.35288 2.84073 1.22215 -0.191191 2.85616 1.21086 0.262098 2.85053 -5.73048 16.65 -0.827222 -5.57706 31.3981 2.2465 -0.0 0.0 -0.0 1.28464 15.3977 3.8547 -2.22077 -22.1077 51.7542 1.94636 -43.9501 0.785458 -8.30697 -0.365655 0.996126 0.442675 -4.21763 1.19489 -0.0 0.0 -0.0 11.6608 0.840528 -23.1956 -32.0076 25.3273 -57.4207 0.252337 7.12521 -0.0157104 29.988 -0.0667257 3.78676 0.504083 -17.5193 -10.2242 0.0 0.0 0.0 -4.54037 -7.93214 8.36756 -23.2489 0.24293 3.53504 36.9916 20.2769 -4.74701 -38.2273 0.0 0.0 -0.0 0.0 -0.0 37.561 -3.32177 -2.95926 -16.6554 -0.320466 -2.52686 -10.1623 11.7872 -1.61767 3.1411 -0.0 -0.0 0.0 0.0 0.0 
1113.1 724.11 -1135.93 -167.753 -47.1271 -173.008 1.18436 0.540494 2.75032 1.1885 0.364458 2.77911 1.20714 -0.168868 2.7978 1.19632 0.274935 2.78938 -6.03127 16.1271 -3.06724 -5.85799 32.0889 -0.0392904 -0.0 0.0 -0.0 1.68124 15.7081 4.50859 -5.27164 -22.2587 52.8199 1.84028 -42.3488 0.712904 -9.31678 -0.419862 1.11336 0.214133 -0.319465 1.29651 -0.0 0.0 -0.0 11.794 2.70635 -23.5998 -31.2026 25.7034 -57.4169 0.279579 7.88522 -0.0192687 30.8971 -0.0377576 3.89926 0.0437445 -18.2321 -7.66436 0.0 0.0 0.0 -2.10868 -6.211 8.50468 -27.0429 0.145923 4.10909 37.1833 21.1386 -4.78553 -37.7312 0.0 0.0 -0.0 0.0 -0.0 36.9618 -3.32139 -2.61383 -18.3043 -0.311966 -2.77969 -12.5763 14.5035 -2.04669 3.63109 -0.0 -0.0 0.0 0.0 0.0 
1129.5 727.966 -1127.72 -167.554 -47.1578 -173.139 1.49126 0.50096 2.63832 1.49507 0.332123 2.66483 1.51105 -0.164753 2.68038 1.50112 0.260475 2.67278 -6.96921 14.9386 -6.28891 -6.78959 32.2549 -3.26422 -0.0 0.0 -0.0 1.4106 15.8781 4.09282 -7.10876 -23.1707 54.4656 1.65251 -39.3007 0.590104 -9.08038 -0.406986 1.086 0.129154 4.56783 2.76233 -0.0 0.0 -0.0 11.9752 7.04527 -24.1777 -29.1015 24.5767 -58.0864 0.310995 8.7582 -0.0238157 33.593 0.0586039 4.23004 -0.282025 -20.9386 -6.75109 0.0 0.0 0.0 -0.91652 -5.05872 8.97715 -28.0596 0.113484 4.26175 31.4302 20.1147 -4.1643 -36.7687 0.0 0.0 -0.0 0.0 -0.0 36.4368 -3.13075 -1.967 -19.0232 -0.305983 -2.88984 -13.0888 17.0769 -2.17546 3.95807 -0.0 -0.0 0.0 0.0 0.0 
1145.81 726.883 -1121.41 -167.881 -47.1955 -173.307 1.697 0.426373 2.43484 1.70025 0.270621 2.45702 1.7121 -0.178275 2.46544 1.70368 0.213211 2.46266 -11.0598 14.825 -5.99145 -11.4359 31.9275 -1.6621 -0.0 0.0 -0.0 0.956299 16.159 3.40028 -7.47153 -23.3641 56.3727 1.44246 -35.5456 0.462389 -8.38511 -0.369775 1.00523 -0.481077 8.00336 0.212793 -0.0 0.0 -0.0 11.6955 11.7546 -23.5804 -27.3478 23.1658 -59.0205 0.431638 12.0695 -0.0456319 35.9872 0.157163 4.51977 -0.561799 -23.689 -6.20158 0.0 0.0 0.0 2.53346 2.63007 5.97435 -36.0166 -0.232983 5.43259 28.7024 17.9951 -3.82709 -36.2199 0.0 0.0 -0.0 0.0 -0.0 35.5245 -2.92031 -1.6761 -19.4925 -0.301332 -2.9617 -8.3236 21.2853 -1.42883 3.98633 -0.0 -0.0 0.0 0.0 0.0 
1159.79 729.168 -1113.5 -167.243 -47.4969 -172.788 1.89871 0.406073 2.40709 1.90189 0.252127 2.42803 1.91262 -0.182711 2.43424 1.90441 0.203908 2.43255 -13.3667 14.6725 -5.92935 -14.0333 31.5789 -0.91011 -0.0 0.0 -0.0 1.22636 16.0745 3.8179 -8.86472 -24.2067 57.0354 1.21228 -30.9848 0.336033 -8.8814 -0.396236 1.06293 -0.706678 12.92 0.86641 -0.0 0.0 -0.0 11.7642 14.9594 -23.6611 -26.0349 22.6547 -60.1142 0.476155 13.2721 -0.0553971 38.1199 0.255102 4.77424 -0.923412 -25.6732 -4.95438 0.0 0.0 0.0 7.59108 5.61276 3.02879 -44.206 -0.755797 6.57679 26.3709 14.4972 -3.52189 -36.0943 0.0 0.0 -0.0 0.0 -0.0 34.9965 -2.98723 -1.7134 -19.7098 -0.298979 -2.99495 -6.17146 21.8487 -1.06125 1.79899 -0.0 -0.0 0.0 0.0 0.0 
1169.89 735.845 -1109.83 -166.498 -47.7821 -172.348 2.20342 0.407177 2.38886 2.20656 0.254388 2.40991 2.21704 -0.164415 2.41771 2.20894 0.219366 2.41335 -14.8237 14.3879 -6.1717 -15.6414 31.1389 -0.788699 -0.0 0.0 -0.0 1.07358 16.4683 3.61126 -10.5349 -24.366 58.5504 1.161 -29.9032 0.310048 -9.23893 -0.415609 1.10436 -0.968863 15.0528 0.151579 -0.0 0.0 -0.0 11.8314 17.7776 -23.6877 -24.611 22.6228 -60.3809 0.535738 14.8632 -0.0698815 39.5143 0.324242 4.9386 -1.34388 -26.5358 -2.98109 0.0 0.0 0.0 13.4816 9.78275 -0.0433634 -50.721 -1.28554 7.42768 22.6046 13.3118 -3.0675 -36.8159 0.0 0.0 -0.0 0.0 -0.0 34.3694 -2.6948 -1.08482 -19.652 -0.299617 -2.98611 -3.37149 22.7709 -0.581807 0.154814 -0.0 -0.0 0.0 0.0 0.0 
1190.13 739.752 -1101.36 -166.435 -48.5078 -172.666 2.38412 0.418523 2.38741 2.38726 0.265804 2.40918 2.39806 -0.145387 2.41943 2.38997 0.238428 2.41204 -17.1757 14.3478 -5.41712 -18.2667 30.527 0.621328 -0.0 0.0 -0.0 1.61081 16.8133 4.47665 -11.7771 -24.3513 59.7373 0.934478 -24.8397 0.205802 -9.45159 -0.427255 1.12894 -1.50765 18.4503 -1.61562 -0.0 0.0 -0.0 12.204 21.2884 -24.3053 -21.9212 21.8285 -60.0939 0.573282 15.854 -0.0798256 40.5925 0.38044 5.06453 -1.55501 -27.7031 -2.34266 0.0 0.0 0.0 17.1321 12.905 -3.3643 -54.9198 -1.6771 7.94247 24.5152 10.4718 -3.2814 -36.5722 0.0 0.0 -0.0 0.0 -0.0 33.6302 -2.39106 -0.028483 -20.7981 -0.285298 -3.16138 -0.0950682 24.3186 -0.0165434 -0.286976 0.0 0.0 0.0 0.0 0.0 
1204.4 741.047 -1093.78 -166.928 -48.5484 -173.323 2.43545 0.437818 2.4361 2.43871 0.281963 2.45901 2.45038 -0.135617 2.47139 2.44194 0.256275 2.46182 -18.1356 14.1289 -5.34446 -19.2982 30.0167 0.87183 -0.0 0.0 -0.0 1.45026 17.2064 4.25638 -13.562 -24.1821 60.6902 0.847076 -22.7635 0.170523 -9.60292 -0.435597 1.14641 -1.76682 20.1568 -2.36634 -0.0 0.0 -0.0 12.3627 23.8132 -24.4441 -20.2725 21.3905 -59.5041 0.609871 16.8103 -0.0901149 41.3168 0.419523 5.14853 -1.79651 -28.1525 -1.23786 0.0 0.0 0.0 20.9632 14.6823 -5.3365 -57.128 -1.89798 8.20149 24.0709 9.42713 -3.22583 -36.9201 0.0 0.0 -0.0 0.0 -0.0 32.6279 -2.27012 0.493974 -21.5253 -0.274395 -3.27243 1.67467 25.1147 0.292531 -0.959298 0.0 0.0 0.0 0.0 0.0 
1227.86 743.208 -1082.79 -167.772 -48.567 -173.73 2.58686 0.438134 2.3606 2.58991 0.287078 2.38368 2.60133 -0.111572 2.3983 2.5934 0.268485 2.38584 -16.9961 14.1934 -4.87117 -18.0322 29.9392 1.00342 -0.0 0.0 -0.0 1.28217 17.5182 4.02135 -14.9867 -24.2408 61.8746 0.689038 -18.8463 0.114357 -8.9136 -0.39797 1.06667 -1.66818 22.5983 -0.640142 -0.0 0.0 -0.0 12.4156 24.3447 -24.5122 -19.4862 21.6284 -59.5661 0.669707 18.3535 -0.108191 41.079 0.40657 5.121 -2.03326 -27.0529 0.577488 0.0 0.0 0.0 23.2829 11.461 -4.24478 -59.8377 -2.18249 8.50755 23.4048 15.1506 -3.17716 -36.1393 0.0 0.0 -0.0 0.0 -0.0 31.6159 -0.262954 0.50183 -24.3169 -0.219472 -3.69725 3.33349 24.6242 0.57598 0.395489 -0.0 -0.0 0.0 0.0 0.0 
1248.26 747.319 -1074.46 -166.726 -48.0894 -173.113 2.55276 0.561494 2.30185 2.55561 0.413925 2.33289 2.57206 0.0208346 2.36921 2.56444 0.394643 2.33623 -18.06 13.9619 -3.58735 -19.146 28.7622 2.38948 -0.0 0.0 -0.0 0.979951 18.0484 3.6031 -16.3592 -25.0307 63.5789 0.690914 -18.894 0.114964 -8.39477 -0.370286 1.00636 -1.69498 23.9162 -0.178872 -0.0 0.0 -0.0 12.5488 25.7732 -24.6637 -18.6362 22.1739 -58.9074 0.708355 19.3359 -0.120675 40.7032 0.38634 5.07739 -2.28454 -25.8009 2.58844 0.0 0.0 0.0 25.2244 9.99611 -2.95187 -60.6734 -2.27314 8.59922 21.6333 18.757 -2.99395 -35.8676 0.0 0.0 -0.0 0.0 -0.0 31.3844 -1.44631 1.65153 -24.8741 -0.206034 -3.78171 3.35145 24.9507 0.581199 1.07506 -0.0 -0.0 0.0 0.0 0.0 
1264.28 747.65 -1067.18 -167.005 -47.6048 -174.169 2.65417 0.703135 2.66284 2.65796 0.532331 2.70214 2.68244 0.0817086 2.75283 2.67223 0.515281 2.70545 -16.6456 13.2673 -3.87283 -17.4907 27.6233 1.42378 -0.0 0.0 -0.0 1.10652 18.5417 3.83667 -17.9098 -25.1319 63.5557 0.553134 -15.3235 0.0744111 -8.38835 -0.369947 1.00561 -1.56233 25.1972 1.16295 -0.0 0.0 -0.0 12.9874 27.0061 -25.526 -14.974 23.5805 -57.4675 0.731618 19.9216 -0.12849 41.0546 0.405247 5.11817 -2.43366 -27.2029 2.69965 0.0 0.0 0.0 28.5351 9.81806 -2.87908 -61.9455 -2.41368 8.73622 20.4125 21.415 -2.8707 -36.9441 0.0 0.0 -0.0 0.0 -0.0 29.1395 -1.84662 2.33133 -21.661 -0.272204 -3.29315 5.24558 24.9065 0.903301 -0.29594 0.0 0.0 0.0 0.0 0.0 
